<?xml version="1.0" encoding="UTF-8"?>
<svg xmlns="http://www.w3.org/2000/svg" viewBox="0 0 46 46">
  <defs>
    <linearGradient id="a" x1="0" x2="1" y1="0" y2="1">
      <stop offset="0" stop-color="#34A853"/>
      <stop offset="1" stop-color="#34A853"/>
    </linearGradient>
  </defs>
  <g fill="none" fill-rule="evenodd">
    <path fill="#4285F4" d="M23 9c3.9 0 6.6 1.7 8.1 3.1l6-5.8C34.9 3 29.6 1 23 1 14.7 1 7.5 5 3 11.9l7.3 5.7C12.8 13 17.6 9 23 9z"/>
    <path fill="#34A853" d="M9.7 16.7A13.9 13.9 0 0 0 7 23c0 2 0.5 3.9 1.4 5.6l7.3-5.7c-.3-1-.5-2-.5-3 0-.9.1-1.8.5-2.6l-6-5.8z"/>
    <path fill="#FBBC05" d="M23 41c6.6 0 11.9-2 15.1-5.3l-7-5.5c-1.7 1.3-4 2.3-8.1 2.3-5.4 0-10.2-4-11.9-9.4l-7.3 5.7C7.5 41 14.7 45 23 45z"/>
    <path fill="#EA4335" d="M40.1 5.9L33.6 11c-1.4-1.4-4.2-3.1-7.6-3.1-5.4 0-10.2 4-11.9 9.4l7.3 5.7c.8-3 3-5.6 6.6-6.6 2.4-.7 4.9-.6 7.1.2l3.2-6.9c-.9-.6-2-1.2-3.2-1.6z"/>
  </g>
</svg>
